# Blender 4.1.1
# www.blender.org
mtllib waterpistol.mtl
o Curve
o Cube
v 2.000000 -2.000000 -12.000000
v 2.000000 -2.000000 2.000000
v -2.000000 -2.000000 2.000000
v -2.000000 -1.994351 -12.006647
v 1.000000 1.000000 -11.999999
v 0.999999 1.000000 1.000001
v -1.000000 1.000000 1.000000
v -1.000000 1.000000 -12.000000
v -0.181462 0.903793 -3.007567
v -0.181462 0.903793 0.648552
v -0.771462 0.903793 0.648552
v -0.771462 0.903793 -3.007567
v -0.181462 1.734993 -1.728038
v -0.181462 1.734993 -0.065030
v -0.771462 1.734993 -0.065032
v -0.771462 1.734993 -1.740342
v 0.777773 0.903793 -3.007567
v 0.777773 0.903793 0.648552
v 0.187773 0.903793 0.648552
v 0.187773 0.903793 -3.007567
v 0.777773 1.734993 -1.728038
v 0.777772 1.734993 -0.065030
v 0.187773 1.734993 -0.065032
v 0.187773 1.734993 -1.740342
v 0.051640 0.987647 -21.879068
v 0.092700 0.987647 -21.095949
v -0.081978 0.987647 -21.095949
v -0.055848 0.987647 -21.879068
v -0.003990 1.560622 -21.797329
v 0.003495 0.987647 -21.606956
v -0.144679 -5.931247 -3.662402
v -0.144698 -7.056500 -4.445760
v -0.138639 -7.064483 -2.213729
v -0.144609 -3.535357 -2.333588
v -0.144568 -3.670067 -4.443881
v -0.144575 -4.454765 -3.858027
v -0.144624 -5.364303 -3.531887
v 0.191483 -5.932709 -3.662394
v 0.191464 -7.068651 -4.445752
v 0.191495 -7.070606 -2.213721
v 0.191552 -3.535450 -2.333580
v 0.191593 -3.670161 -4.443874
v 0.191587 -4.454860 -3.858021
v 0.191538 -5.364399 -3.548596
v -0.144631 -5.199768 -2.987402
v 0.191530 -5.203154 -2.987394
v -0.945840 -2.994870 0.197731
v 1.001295 -13.994869 -2.998706
v 2.001295 -12.994869 -1.998706
v -1.998705 -12.994869 -1.998706
v -0.998705 -13.994869 -2.998706
v 1.001295 -13.994869 -0.998706
v 2.001294 -12.994871 -0.998706
v -1.998705 -12.994869 -0.998706
v -0.998705 -13.994869 -0.998706
v 1.589424 0.961732 -9.956837
v 1.589424 0.961732 -9.956837
v 1.589424 0.961732 -9.956837
v -0.945840 -2.994870 1.197731
v 1.001295 -13.994869 -0.998706
v 2.001295 -12.994869 -1.998706
v -1.998705 -12.994869 -1.998706
v -0.998705 -13.994869 -0.998706
v 1.001295 -13.994869 1.001294
v 2.001294 -12.994871 2.001294
v -1.998705 -12.994869 2.001294
v -0.998705 -13.994869 1.001294
v 1.589424 0.961732 -8.956837
v 1.589424 0.961732 -8.956837
v 1.589424 0.961732 -8.956837
v 0.505311 -7.129683 -2.609742
v 0.505311 -6.970634 -2.608582
v -0.494689 -6.970634 -2.612396
v -0.494688 -7.129683 -2.605929
v 0.505312 -7.129508 -5.160533
v 0.505311 -6.971026 -5.039707
v -0.494689 -6.971026 -5.039708
v -0.494689 -7.130921 -5.161888
v 0.505311 -7.140762 -5.161098
v 0.505311 -6.985526 -5.007398
v -0.494689 -6.985526 -5.007398
v -0.494688 -7.140762 -5.161098
v 0.505312 -5.937436 -6.564036
v 0.505311 -5.906695 -6.309722
v -0.494689 -5.906695 -6.309724
v -0.494689 -5.937436 -6.564036
v 0.505311 -5.947590 -6.581296
v 0.505311 -5.947590 -6.296243
v -0.494689 -5.947590 -6.296243
v -0.494688 -5.947590 -6.581297
v 0.505312 -3.947590 -6.581296
v 0.505311 -3.947590 -6.296242
v -0.494689 -3.947590 -6.296243
v -0.494689 -3.947590 -6.581296
v 2.000000 -2.000000 -14.002904
v 2.000000 -2.000000 -13.002904
v -2.000000 -2.000000 -13.002904
v -2.000000 -1.994351 -14.009551
v 1.000000 1.000000 -14.002903
v 0.999999 1.000000 -13.002903
v -1.000000 1.000000 -13.002904
v -1.000000 1.000000 -14.002904
v 2.000000 -2.000000 -16.002903
v 2.000000 -2.000000 -15.002904
v -2.000000 -2.000000 -15.002904
v -2.000000 -1.994351 -16.009552
v 1.000000 1.000000 -16.002903
v 0.999999 1.000000 -15.002903
v -1.000000 1.000000 -15.002904
v -1.000000 1.000000 -16.002903
v 2.000000 -2.000000 -18.002903
v 2.000000 -2.000000 -17.002903
v -2.000000 -2.000000 -17.002903
v -2.000000 -1.994351 -18.009552
v 1.000000 1.000000 -18.002903
v 0.999999 1.000000 -17.002903
v -1.000000 1.000000 -17.002903
v -1.000000 1.000000 -18.002903
v 2.000000 -2.000000 -20.002903
v 2.000000 -2.000000 -19.002903
v -2.000000 -2.000000 -19.002903
v -2.000000 -1.994351 -20.009552
v 1.000000 1.000000 -20.002903
v 0.999999 1.000000 -19.002903
v -1.000000 1.000000 -19.002903
v -1.000000 1.000000 -20.002903
v 2.000000 -2.000000 -22.002903
v 2.000000 -2.000000 -21.002903
v -2.000000 -2.000000 -21.002903
v -2.000000 -1.994351 -22.009552
v 1.000000 1.000000 -22.002903
v 0.999999 1.000000 -21.002903
v -1.000000 1.000000 -21.002903
v -1.000000 1.000000 -22.002903
v 1.009111 -0.259083 -22.481733
v 1.269185 -0.617043 -22.481733
v 1.405913 -1.037851 -22.481733
v 1.405913 -1.480314 -22.481733
v 1.269185 -1.901122 -22.481733
v 1.009111 -2.259083 -22.481733
v 0.651150 -2.519156 -22.481733
v 0.230342 -2.655885 -22.481733
v -0.212121 -2.655885 -22.481733
v -0.632929 -2.519156 -22.481733
v -0.990889 -2.259082 -22.481733
v -1.250963 -1.901121 -22.481733
v -1.387691 -1.480313 -22.481733
v -1.387691 -1.037849 -22.481733
v -1.250962 -0.617042 -22.481733
v -0.990888 -0.259081 -22.481733
v -0.632927 0.000992 -22.481733
v -0.212118 0.137720 -22.481733
v 0.230345 0.137719 -22.481733
v 0.651153 0.000990 -22.481733
v 1.009113 -0.259085 -10.481733
v 1.269186 -0.617046 -10.481733
v 1.405914 -1.037854 -10.481733
v 1.405913 -1.480318 -10.481733
v 1.269183 -1.901126 -10.481733
v 1.009109 -2.259086 -10.481733
v 0.651147 -2.519158 -10.481733
v 0.230339 -2.655886 -10.481733
v -0.212125 -2.655885 -10.481733
v -0.632932 -2.519155 -10.481733
v -0.990892 -2.259080 -10.481733
v -1.250965 -1.901119 -10.481733
v -1.387692 -1.480310 -10.481733
v -1.387690 -1.037846 -10.481733
v -1.250960 -0.617039 -10.481733
v -0.990885 -0.259079 -10.481733
v -0.632923 0.000993 -10.481733
v -0.212115 0.137720 -10.481733
v 0.230349 0.137718 -10.481733
v 0.651156 0.000988 -10.481733
v 0.009111 -1.259083 -22.481733
v 0.009111 -1.259083 -10.481733
v 0.827340 -3.508190 -10.488448
v 1.040392 -3.324914 -10.488470
v 1.152400 -3.109460 -10.488497
v 1.152400 -2.882919 -10.488523
v 1.040392 -2.667465 -10.488550
v 0.827340 -2.484190 -10.488572
v 0.534098 -2.351032 -10.488588
v 0.189372 -2.281027 -10.488596
v -0.173094 -2.281027 -10.488596
v -0.517820 -2.351032 -10.488588
v -0.811061 -2.484190 -10.488572
v -1.024113 -2.667466 -10.488550
v -1.136121 -2.882920 -10.488523
v -1.136121 -3.109461 -10.488497
v -1.024112 -3.324914 -10.488470
v -0.811059 -3.508190 -10.488448
v -0.517818 -3.641348 -10.488432
v -0.173092 -3.711353 -10.488424
v 0.189375 -3.711352 -10.488424
v 0.534100 -3.641347 -10.488432
v 0.827341 -3.509519 -21.512447
v 1.040393 -3.326243 -21.512468
v 1.152400 -3.110789 -21.512495
v 1.152400 -2.884248 -21.512522
v 1.040390 -2.668794 -21.512548
v 0.827338 -2.485519 -21.512569
v 0.534096 -2.352361 -21.512587
v 0.189369 -2.282357 -21.512594
v -0.173097 -2.282357 -21.512594
v -0.517822 -2.352363 -21.512587
v -0.811063 -2.485522 -21.512569
v -1.024114 -2.668798 -21.512548
v -1.136122 -2.884252 -21.512522
v -1.136120 -3.110793 -21.512495
v -1.024111 -3.326247 -21.512468
v -0.811057 -3.509522 -21.512447
v -0.517815 -3.642679 -21.512430
v -0.173089 -3.712683 -21.512423
v 0.189378 -3.712682 -21.512423
v 0.534103 -3.642676 -21.512430
v 0.008140 -2.996190 -10.488510
v 0.008140 -2.997520 -21.512508
v -0.945918 -3.000000 1.197731
v 1.001217 -4.000000 -2.998706
v 2.001217 -13.000000 -1.998706
v -1.998783 -13.000000 -1.998706
v -0.998783 -4.000000 -2.998706
v 1.001218 -4.000000 1.001294
v 2.001216 -13.000001 2.001294
v -1.998783 -13.000000 2.001294
v -0.998783 -4.000000 1.001294
v 1.589346 0.956602 -8.956837
v 1.589346 0.956602 -8.956837
v 1.589346 0.956602 -8.956837
v -0.945918 -2.000000 1.197731
v 2.001217 -3.000000 -10.998706
v 1.001217 -4.000000 -10.998706
v -0.998783 -4.000000 -10.998706
v -1.998783 -3.000000 -10.998706
v 2.001218 -3.000000 2.001294
v 1.001216 -4.000001 1.001294
v -0.998783 -4.000000 1.001294
v -1.998783 -3.000000 2.001294
v -0.945918 -1.000000 1.197731
v 2.001217 -2.000000 -21.998707
v 2.001217 -3.000000 -19.998707
v -1.998783 -3.000000 -19.998707
v -1.998783 -2.000000 -21.998707
v 2.001218 -2.000000 2.001294
v 2.001216 -3.000001 2.001294
v -1.998783 -3.000000 2.001294
v -1.998783 -2.000000 2.001294
vn -0.0007 -1.0000 -0.0002
vn -0.0000 1.0000 -0.0000
vn 0.9487 0.3162 -0.0000
vn -0.0000 0.3162 0.9487
vn -0.9486 0.3165 0.0001
vn 0.0011 0.0011 -1.0000
vn -0.0000 -1.0000 -0.0000
vn 1.0000 -0.0000 -0.0000
vn -0.0000 0.6514 0.7587
vn -1.0000 -0.0000 -0.0000
vn 0.0057 0.8374 -0.5466
vn 0.9932 0.1039 -0.0521
vn -0.0000 0.7744 0.6327
vn -0.9949 0.0948 -0.0332
vn -0.0000 0.1412 -0.9900
vn -1.0000 -0.0001 0.0002
vn 1.0000 0.0001 -0.0002
vn -1.0000 -0.0021 0.0027
vn -1.0000 -0.0016 0.0040
vn -1.0000 -0.0001 -0.0002
vn 1.0000 0.0001 0.0002
vn -1.0000 0.0001 -0.0000
vn 1.0000 -0.0001 -0.0000
vn 0.0115 0.5695 -0.8219
vn -0.0274 -0.9996 -0.0022
vn 0.0003 0.0339 0.9994
vn 0.0003 0.9980 -0.0637
vn -0.0002 -0.5983 -0.8013
vn -0.0235 -0.3297 -0.9438
vn -0.0238 0.2103 -0.9773
vn -0.0000 -0.7071 0.7071
vn -0.0000 -0.0000 -1.0000
vn -0.7071 0.7071 -0.0000
vn 0.7071 0.7071 -0.0000
vn -0.0000 0.7071 0.7071
vn -0.0000 0.7071 -0.7071
vn -0.0000 0.0167 0.9999
vn 0.0001 0.6067 -0.7949
vn -0.0000 1.0000 -0.0002
vn 0.0007 -1.0000 0.0002
vn -0.0000 -0.7036 0.7106
vn -0.0000 0.9928 -0.1200
vn -0.0000 0.7701 0.6379
vn -0.0000 -0.7590 -0.6510
vn -0.0000 -0.0000 1.0000
vn -0.0007 -1.0000 -0.0028
vn -0.9486 0.3165 0.0009
vn 0.8090 0.5878 -0.0000
vn 0.9511 0.3090 -0.0000
vn 0.9511 -0.3090 -0.0000
vn 0.8090 -0.5878 -0.0000
vn 0.5878 -0.8090 -0.0000
vn 0.3090 -0.9511 -0.0000
vn -0.3090 -0.9511 -0.0000
vn -0.5878 -0.8090 -0.0000
vn -0.8090 -0.5878 -0.0000
vn -0.9511 -0.3090 -0.0000
vn -0.9511 0.3090 -0.0000
vn -0.8090 0.5878 -0.0000
vn -0.5878 0.8090 -0.0000
vn -0.3090 0.9511 -0.0000
vn 0.3090 0.9511 -0.0000
vn 0.5878 0.8090 -0.0000
vn -0.0000 0.0001 1.0000
vn -0.0000 -0.0001 -1.0000
vn 0.6521 -0.7581 0.0001
vn 0.8873 -0.4613 0.0001
vn 0.8873 0.4613 -0.0001
vn 0.6521 0.7581 -0.0001
vn 0.4135 0.9105 -0.0001
vn 0.1990 0.9800 -0.0001
vn -0.0000 1.0000 -0.0001
vn -0.1990 0.9800 -0.0001
vn -0.4135 0.9105 -0.0001
vn -0.6521 0.7581 -0.0001
vn -0.8873 0.4613 -0.0001
vn -0.8873 -0.4613 0.0001
vn -0.6521 -0.7581 0.0001
vn -0.4135 -0.9105 0.0001
vn -0.1990 -0.9800 0.0001
vn -0.0000 -1.0000 0.0001
vn 0.1990 -0.9800 0.0001
vn 0.4135 -0.9105 0.0001
vn -0.0000 -0.1104 -0.9939
vn -0.0000 0.1104 0.9939
vn 0.9939 0.1104 -0.0000
vn -0.9939 0.1104 -0.0000
vn 0.7071 -0.7071 -0.0000
vn -0.7071 -0.7071 -0.0000
vn -0.0000 -0.8944 -0.4472
s 0
usemtl Material
f 1//1 2//1 3//1 4//1
f 5//2 8//2 7//2 6//2
f 1//3 5//3 6//3 2//3
f 2//4 6//4 7//4 3//4
f 3//5 7//5 8//5 4//5
f 5//6 1//6 4//6 8//6
f 9//7 10//7 11//7 12//7
f 13//2 16//2 15//2 14//2
f 9//8 13//8 14//8 10//8
f 10//9 14//9 15//9 11//9
f 11//10 15//10 16//10 12//10
f 13//11 9//11 12//11 16//11
f 17//7 18//7 19//7 20//7
f 21//2 24//2 23//2 22//2
f 17//8 21//8 22//8 18//8
f 18//9 22//9 23//9 19//9
f 19//10 23//10 24//10 20//10
f 21//11 17//11 20//11 24//11
f 26//12 25//12 29//12
f 29//13 27//13 26//13
f 29//14 28//14 27//14
f 29//15 25//15 28//15
f 30//7 25//7 26//7
f 30//7 26//7 27//7
f 30//7 27//7 28//7
f 28//7 25//7 30//7
f 45//16 31//16 32//16
f 46//17 39//17 38//17
f 45//18 32//18 33//18
f 46//8 40//8 39//8
f 45//19 33//19 34//19
f 46//8 41//8 40//8
f 45//10 34//10 35//10
f 46//8 42//8 41//8
f 45//20 35//20 36//20
f 46//21 43//21 42//21
f 45//10 36//10 37//10
f 46//8 44//8 43//8
f 37//22 31//22 45//22
f 46//23 38//23 44//23
f 31//24 38//24 39//24 32//24
f 32//25 39//25 40//25 33//25
f 33//26 40//26 41//26 34//26
f 34//27 41//27 42//27 35//27
f 35//28 42//28 43//28 36//28
f 36//29 43//29 44//29 37//29
f 38//30 31//30 37//30 44//30
f 50//31 51//31 48//31 49//31
f 52//32 55//32 54//32 53//32
f 48//33 52//33 53//33 49//33
f 49//7 53//7 54//7 50//7
f 50//34 54//34 55//34 51//34
f 51//2 55//2 52//2 48//2
f 62//35 63//35 60//35 61//35
f 64//36 67//36 66//36 65//36
f 60//33 64//33 65//33 61//33
f 61//7 65//7 66//7 62//7
f 62//34 66//34 67//34 63//34
f 63//2 67//2 64//2 60//2
f 71//37 72//37 73//37 74//37
f 75//38 78//38 77//38 76//38
f 71//8 75//8 76//8 72//8
f 72//39 76//39 77//39 73//39
f 73//10 77//10 78//10 74//10
f 75//40 71//40 74//40 78//40
f 79//41 80//41 81//41 82//41
f 83//42 86//42 85//42 84//42
f 79//8 83//8 84//8 80//8
f 80//43 84//43 85//43 81//43
f 81//10 85//10 86//10 82//10
f 83//44 79//44 82//44 86//44
f 87//7 88//7 89//7 90//7
f 91//2 94//2 93//2 92//2
f 87//8 91//8 92//8 88//8
f 88//45 92//45 93//45 89//45
f 89//10 93//10 94//10 90//10
f 91//32 87//32 90//32 94//32
f 95//46 96//46 97//46 98//46
f 99//2 102//2 101//2 100//2
f 95//3 99//3 100//3 96//3
f 96//45 100//45 101//45 97//45
f 97//47 101//47 102//47 98//47
f 99//6 95//6 98//6 102//6
f 103//46 104//46 105//46 106//46
f 107//2 110//2 109//2 108//2
f 103//3 107//3 108//3 104//3
f 104//45 108//45 109//45 105//45
f 105//47 109//47 110//47 106//47
f 107//6 103//6 106//6 110//6
f 111//46 112//46 113//46 114//46
f 115//2 118//2 117//2 116//2
f 111//3 115//3 116//3 112//3
f 112//45 116//45 117//45 113//45
f 113//47 117//47 118//47 114//47
f 115//6 111//6 114//6 118//6
f 119//46 120//46 121//46 122//46
f 123//2 126//2 125//2 124//2
f 119//3 123//3 124//3 120//3
f 120//45 124//45 125//45 121//45
f 121//47 125//47 126//47 122//47
f 123//6 119//6 122//6 126//6
f 127//46 128//46 129//46 130//46
f 131//2 134//2 133//2 132//2
f 127//3 131//3 132//3 128//3
f 128//45 132//45 133//45 129//45
f 129//47 133//47 134//47 130//47
f 131//6 127//6 130//6 134//6
f 175//32 135//32 136//32
f 176//45 156//45 155//45
f 175//32 136//32 137//32
f 176//45 157//45 156//45
f 175//32 137//32 138//32
f 176//45 158//45 157//45
f 175//32 138//32 139//32
f 176//45 159//45 158//45
f 175//32 139//32 140//32
f 176//45 160//45 159//45
f 175//32 140//32 141//32
f 176//45 161//45 160//45
f 175//32 141//32 142//32
f 176//45 162//45 161//45
f 175//32 142//32 143//32
f 176//45 163//45 162//45
f 175//32 143//32 144//32
f 176//45 164//45 163//45
f 175//32 144//32 145//32
f 176//45 165//45 164//45
f 175//32 145//32 146//32
f 176//45 166//45 165//45
f 175//32 146//32 147//32
f 176//45 167//45 166//45
f 175//32 147//32 148//32
f 176//45 168//45 167//45
f 175//32 148//32 149//32
f 176//45 169//45 168//45
f 175//32 149//32 150//32
f 176//45 170//45 169//45
f 175//32 150//32 151//32
f 176//45 171//45 170//45
f 175//32 151//32 152//32
f 176//45 172//45 171//45
f 175//32 152//32 153//32
f 176//45 173//45 172//45
f 175//32 153//32 154//32
f 176//45 174//45 173//45
f 154//32 135//32 175//32
f 176//45 155//45 174//45
f 135//48 155//48 156//48 136//48
f 136//49 156//49 157//49 137//49
f 137//8 157//8 158//8 138//8
f 138//50 158//50 159//50 139//50
f 139//51 159//51 160//51 140//51
f 140//52 160//52 161//52 141//52
f 141//53 161//53 162//53 142//53
f 142//7 162//7 163//7 143//7
f 143//54 163//54 164//54 144//54
f 144//55 164//55 165//55 145//55
f 145//56 165//56 166//56 146//56
f 146//57 166//57 167//57 147//57
f 147//10 167//10 168//10 148//10
f 148//58 168//58 169//58 149//58
f 149//59 169//59 170//59 150//59
f 150//60 170//60 171//60 151//60
f 151//61 171//61 172//61 152//61
f 152//2 172//2 173//2 153//2
f 153//62 173//62 174//62 154//62
f 155//63 135//63 154//63 174//63
f 217//64 177//64 178//64
f 218//65 198//65 197//65
f 217//64 178//64 179//64
f 218//65 199//65 198//65
f 217//64 179//64 180//64
f 218//65 200//65 199//65
f 217//64 180//64 181//64
f 218//65 201//65 200//65
f 217//64 181//64 182//64
f 218//65 202//65 201//65
f 217//64 182//64 183//64
f 218//65 203//65 202//65
f 217//64 183//64 184//64
f 218//65 204//65 203//65
f 217//64 184//64 185//64
f 218//65 205//65 204//65
f 217//64 185//64 186//64
f 218//65 206//65 205//65
f 217//64 186//64 187//64
f 218//65 207//65 206//65
f 217//64 187//64 188//64
f 218//65 208//65 207//65
f 217//64 188//64 189//64
f 218//65 209//65 208//65
f 217//64 189//64 190//64
f 218//65 210//65 209//65
f 217//64 190//64 191//64
f 218//65 211//65 210//65
f 217//64 191//64 192//64
f 218//65 212//65 211//65
f 217//64 192//64 193//64
f 218//65 213//65 212//65
f 217//64 193//64 194//64
f 218//65 214//65 213//65
f 217//64 194//64 195//64
f 218//65 215//65 214//65
f 217//64 195//64 196//64
f 218//65 216//65 215//65
f 196//64 177//64 217//64
f 218//65 197//65 216//65
f 177//66 197//66 198//66 178//66
f 178//67 198//67 199//67 179//67
f 179//8 199//8 200//8 180//8
f 180//68 200//68 201//68 181//68
f 181//69 201//69 202//69 182//69
f 182//70 202//70 203//70 183//70
f 183//71 203//71 204//71 184//71
f 184//72 204//72 205//72 185//72
f 185//73 205//73 206//73 186//73
f 186//74 206//74 207//74 187//74
f 187//75 207//75 208//75 188//75
f 188//76 208//76 209//76 189//76
f 189//10 209//10 210//10 190//10
f 190//77 210//77 211//77 191//77
f 191//78 211//78 212//78 192//78
f 192//79 212//79 213//79 193//79
f 193//80 213//80 214//80 194//80
f 194//81 214//81 215//81 195//81
f 195//82 215//82 216//82 196//82
f 197//83 177//83 196//83 216//83
f 222//84 223//84 220//84 221//84
f 224//85 227//85 226//85 225//85
f 220//86 224//86 225//86 221//86
f 221//7 225//7 226//7 222//7
f 222//87 226//87 227//87 223//87
f 223//2 227//2 224//2 220//2
f 234//32 235//32 232//32 233//32
f 236//31 239//31 238//31 237//31
f 232//88 236//88 237//88 233//88
f 233//7 237//7 238//7 234//7
f 234//89 238//89 239//89 235//89
f 235//2 239//2 236//2 232//2
f 243//90 244//90 241//90 242//90
f 245//45 248//45 247//45 246//45
f 241//8 245//8 246//8 242//8
f 242//7 246//7 247//7 243//7
f 243//10 247//10 248//10 244//10
f 244//2 248//2 245//2 241//2
l 56 57
l 57 58
l 68 69
l 69 70
l 228 229
l 229 230
o birdfucker
v -1.957698 -1.791548 -9.208366
v -1.956606 -1.791548 -1.099135
v -1.096174 0.788891 -9.208366
v -1.096173 0.788891 -1.099135
vn -0.9486 0.3165 0.0001
vt 0.000000 0.000000
vt 1.000000 0.000000
vt 1.000000 1.000000
vt 0.000000 1.000000
s 0
usemtl birdfucker
f 249/1/91 250/2/91 252/3/91 251/4/91
