{
	"asset":{
		"generator":"Khronos glTF Blender I/O v4.3.47",
		"version":"2.0"
	},
	"scene":0,
	"scenes":[
		{
			"name":"Scene",
			"nodes":[
				2,
				3
			]
		}
	],
	"nodes":[
		{
			"mesh":0,
			"name":"Object_2"
		},
		{
			"children":[
				0
			],
			"name":"skinny male .obj.cleaner.materialmerger.gles"
		},
		{
			"children":[
				1
			],
			"name":"Sketchfab_model",
			"rotation":[
				-0.70710688829422,
				0,
				0,
				0.7071066498756409
			],
			"scale":[
				1,
				1,
				0.5463926792144775
			]
		},
		{
			"name":"Mesh",
			"scale":[
				1,
				0.5463926196098328,
				1
			]
		}
	],
	"materials":[
		{
			"doubleSided":true,
			"name":"material_0",
			"pbrMetallicRoughness":{
				"metallicFactor":0,
				"roughnessFactor":0.6000000238418579
			}
		},
		{
			"doubleSided":true,
			"name":"Material.001",
			"pbrMetallicRoughness":{
				"baseColorTexture":{
					"index":0
				},
				"metallicFactor":0,
				"roughnessFactor":0.5
			}
		}
	],
	"meshes":[
		{
			"name":"Object_0",
			"primitives":[
				{
					"attributes":{
						"POSITION":0,
						"NORMAL":1,
						"TEXCOORD_0":2
					},
					"indices":3,
					"material":0
				},
				{
					"attributes":{
						"POSITION":4,
						"NORMAL":5,
						"TEXCOORD_0":6
					},
					"indices":7,
					"material":1
				}
			]
		}
	],
	"textures":[
		{
			"sampler":0,
			"source":0
		}
	],
	"images":[
		{
			"mimeType":"image/png",
			"name":"12",
			"uri":"12.png"
		}
	],
	"accessors":[
		{
			"bufferView":0,
			"componentType":5126,
			"count":11652,
			"max":[
				6.880228519439697,
				2.240797996520996,
				26.26085090637207
			],
			"min":[
				-6.429683208465576,
				-2.5211853981018066,
				-0.09569898247718811
			],
			"type":"VEC3"
		},
		{
			"bufferView":1,
			"componentType":5126,
			"count":11652,
			"type":"VEC3"
		},
		{
			"bufferView":2,
			"componentType":5126,
			"count":11652,
			"type":"VEC2"
		},
		{
			"bufferView":3,
			"componentType":5123,
			"count":66720,
			"type":"SCALAR"
		},
		{
			"bufferView":4,
			"componentType":5126,
			"count":247,
			"max":[
				0.9544691443443298,
				0.7491503357887268,
				26.24220085144043
			],
			"min":[
				-1.0405486822128296,
				-1.7398773431777954,
				23.272510528564453
			],
			"type":"VEC3"
		},
		{
			"bufferView":5,
			"componentType":5126,
			"count":247,
			"type":"VEC3"
		},
		{
			"bufferView":6,
			"componentType":5126,
			"count":247,
			"type":"VEC2"
		},
		{
			"bufferView":7,
			"componentType":5123,
			"count":1242,
			"type":"SCALAR"
		}
	],
	"bufferViews":[
		{
			"buffer":0,
			"byteLength":139824,
			"byteOffset":0,
			"target":34962
		},
		{
			"buffer":0,
			"byteLength":139824,
			"byteOffset":139824,
			"target":34962
		},
		{
			"buffer":0,
			"byteLength":93216,
			"byteOffset":279648,
			"target":34962
		},
		{
			"buffer":0,
			"byteLength":133440,
			"byteOffset":372864,
			"target":34963
		},
		{
			"buffer":0,
			"byteLength":2964,
			"byteOffset":506304,
			"target":34962
		},
		{
			"buffer":0,
			"byteLength":2964,
			"byteOffset":509268,
			"target":34962
		},
		{
			"buffer":0,
			"byteLength":1976,
			"byteOffset":512232,
			"target":34962
		},
		{
			"buffer":0,
			"byteLength":2484,
			"byteOffset":514208,
			"target":34963
		}
	],
	"samplers":[
		{
			"magFilter":9729,
			"minFilter":9987
		}
	],
	"buffers":[
		{
			"byteLength":516692,
			"uri":"scene1.bin"
		}
	]
}
