{
  "accessors": [
    {
      "bufferView": 1,
      "componentType": 5126,
      "count": 11714,
      "max": [
        6.880228519439697,
        2.240797996520996,
        26.26085090637207
      ],
      "min": [
        -6.429683208465576,
        -2.5211853981018066,
        -0.09569898247718811
      ],
      "type": "VEC3"
    },
    {
      "bufferView": 1,
      "byteOffset": 140568,
      "componentType": 5126,
      "count": 11714,
      "max": [
        0.9999850392341614,
        0.9999498128890991,
        0.9997757077217102
      ],
      "min": [
        -0.9999551177024841,
        -0.9999813437461853,
        -0.9999886751174927
      ],
      "type": "VEC3"
    },
    {
      "bufferView": 0,
      "componentType": 5125,
      "count": 67962,
      "type": "SCALAR"
    }
  ],
  "asset": {
    "extras": {
      "author": "Teo (https://sketchfab.com/szilla.mini)",
      "license": "CC-BY-4.0 (http://creativecommons.org/licenses/by/4.0/)",
      "source": "https://sketchfab.com/3d-models/skinny-male-5ecb878ed6f04496a3a4f157bb7a1ad9",
      "title": "Skinny Male"
    },
    "generator": "Sketchfab-16.31.0",
    "version": "2.0"
  },
  "bufferViews": [
    {
      "buffer": 0,
      "byteLength": 271848,
      "name": "floatBufferViews",
      "target": 34963
    },
    {
      "buffer": 0,
      "byteLength": 281136,
      "byteOffset": 271848,
      "byteStride": 12,
      "name": "floatBufferViews",
      "target": 34962
    }
  ],
  "buffers": [
    {
      "byteLength": 552984,
      "uri": "scene.bin"
    }
  ],
  "materials": [
    {
      "doubleSided": true,
      "name": "material_0",
      "pbrMetallicRoughness": {
        "metallicFactor": 0.0,
        "roughnessFactor": 0.6
      }
    }
  ],
  "meshes": [
    {
      "name": "Object_0",
      "primitives": [
        {
          "attributes": {
            "NORMAL": 1,
            "POSITION": 0
          },
          "indices": 2,
          "material": 0,
          "mode": 4
        }
      ]
    }
  ],
  "nodes": [
    {
      "children": [
        1
      ],
      "matrix": [
        1.0,
        0.0,
        0.0,
        0.0,
        0.0,
        2.220446049250313e-16,
        -1.0,
        0.0,
        0.0,
        1.0,
        2.220446049250313e-16,
        0.0,
        0.0,
        0.0,
        0.0,
        1.0
      ],
      "name": "Sketchfab_model"
    },
    {
      "children": [
        2
      ],
      "name": "skinny male .obj.cleaner.materialmerger.gles"
    },
    {
      "mesh": 0,
      "name": "Object_2"
    }
  ],
  "scene": 0,
  "scenes": [
    {
      "name": "Sketchfab_Scene",
      "nodes": [
        0
      ]
    }
  ]
}
